<svg width="20" height="23" viewBox="0 0 20 23" fill="none" xmlns="http://www.w3.org/2000/svg">
<circle cx="10" cy="10" r="10" fill="#2966FF"/>
<path d="M7.33034 6.36506C7.71174 6.36506 8.07289 6.42578 8.4138 6.54723C8.75471 6.66655 9.0562 6.85511 9.31827 7.11293C9.58248 7.37074 9.78915 7.70739 9.9383 8.12287C10.0896 8.53622 10.1663 9.03693 10.1684 9.625C10.1705 10.1619 10.1034 10.6445 9.96706 11.0728C9.83283 11.4989 9.64 11.8622 9.38858 12.1626C9.13929 12.4631 8.83887 12.6932 8.4873 12.853C8.13787 13.0107 7.74796 13.0895 7.31756 13.0895C6.8339 13.0895 6.40882 12.9968 6.04235 12.8114C5.67587 12.6261 5.38397 12.3768 5.16664 12.0636C4.94931 11.7504 4.82253 11.402 4.78631 11.0185H6.53773C6.58034 11.2166 6.67409 11.3604 6.81898 11.4499C6.96387 11.5373 7.13006 11.581 7.31756 11.581C7.69256 11.581 7.96635 11.419 8.13894 11.0952C8.31365 10.7692 8.40208 10.3345 8.40421 9.79119H8.36586C8.28276 9.99148 8.15705 10.163 7.98873 10.3058C7.8204 10.4485 7.62438 10.5582 7.40066 10.6349C7.17694 10.7116 6.94043 10.75 6.69114 10.75C6.29696 10.75 5.95179 10.6616 5.65563 10.4847C5.35946 10.3058 5.12828 10.0618 4.96209 9.75284C4.7959 9.44176 4.71174 9.08807 4.70961 8.69176C4.70748 8.22727 4.81721 7.82031 5.0388 7.47088C5.26039 7.12145 5.56827 6.84979 5.96245 6.65589C6.35662 6.462 6.81259 6.36506 7.33034 6.36506ZM7.34313 7.70739C7.16628 7.70739 7.00861 7.74787 6.87012 7.82884C6.73375 7.9098 6.62615 8.01953 6.54732 8.15803C6.47061 8.29652 6.43333 8.45312 6.43546 8.62784C6.43759 8.80256 6.47701 8.95916 6.55371 9.09766C6.63255 9.23615 6.73908 9.34588 6.87331 9.42685C7.00968 9.50781 7.16628 9.5483 7.34313 9.5483C7.4731 9.5483 7.59348 9.52592 7.70428 9.48118C7.81507 9.4343 7.91096 9.36932 7.99192 9.28622C8.07502 9.20099 8.13894 9.10298 8.18368 8.99219C8.23056 8.87926 8.25293 8.75781 8.2508 8.62784C8.24867 8.45312 8.20819 8.29652 8.12935 8.15803C8.05052 8.01953 7.94292 7.9098 7.80655 7.82884C7.67019 7.74787 7.51571 7.70739 7.34313 7.70739ZM13.4915 6.36506C13.8729 6.36506 14.234 6.42578 14.5749 6.54723C14.9158 6.66655 15.2173 6.85511 15.4794 7.11293C15.7436 7.37074 15.9503 7.70739 16.0994 8.12287C16.2507 8.53622 16.3274 9.03693 16.3295 9.625C16.3317 10.1619 16.2646 10.6445 16.1282 11.0728C15.994 11.4989 15.8011 11.8622 15.5497 12.1626C15.3004 12.4631 15 12.6932 14.6484 12.853C14.299 13.0107 13.9091 13.0895 13.4787 13.0895C12.995 13.0895 12.57 12.9968 12.2035 12.8114C11.837 12.6261 11.5451 12.3768 11.3278 12.0636C11.1104 11.7504 10.9837 11.402 10.9474 11.0185H12.6989C12.7415 11.2166 12.8352 11.3604 12.9801 11.4499C13.125 11.5373 13.2912 11.581 13.4787 11.581C13.8537 11.581 14.1275 11.419 14.3001 11.0952C14.4748 10.7692 14.5632 10.3345 14.5653 9.79119H14.527C14.4439 9.99148 14.3182 10.163 14.1499 10.3058C13.9815 10.4485 13.7855 10.5582 13.5618 10.6349C13.3381 10.7116 13.1016 10.75 12.8523 10.75C12.4581 10.75 12.1129 10.6616 11.8168 10.4847C11.5206 10.3058 11.2894 10.0618 11.1232 9.75284C10.957 9.44176 10.8729 9.08807 10.8707 8.69176C10.8686 8.22727 10.9783 7.82031 11.1999 7.47088C11.4215 7.12145 11.7294 6.84979 12.1236 6.65589C12.5178 6.462 12.9737 6.36506 13.4915 6.36506ZM13.5043 7.70739C13.3274 7.70739 13.1697 7.74787 13.0312 7.82884C12.8949 7.9098 12.7873 8.01953 12.7085 8.15803C12.6317 8.29652 12.5945 8.45312 12.5966 8.62784C12.5987 8.80256 12.6381 8.95916 12.7148 9.09766C12.7937 9.23615 12.9002 9.34588 13.0344 9.42685C13.1708 9.50781 13.3274 9.5483 13.5043 9.5483C13.6342 9.5483 13.7546 9.52592 13.8654 9.48118C13.9762 9.4343 14.0721 9.36932 14.1531 9.28622C14.2362 9.20099 14.3001 9.10298 14.3448 8.99219C14.3917 8.87926 14.4141 8.75781 14.4119 8.62784C14.4098 8.45312 14.3693 8.29652 14.2905 8.15803C14.2116 8.01953 14.104 7.9098 13.9677 7.82884C13.8313 7.74787 13.6768 7.70739 13.5043 7.70739Z" fill="white"/>
</svg>
