<svg width="60" height="65" viewBox="0 0 60 65" fill="none" xmlns="http://www.w3.org/2000/svg">
<circle cx="30" cy="35" r="30" fill="#222222"/>
<circle cx="30" cy="30" r="29.5" fill="white" stroke="#222222"/>
<g clip-path="url(#clip0_1_158)">
<path d="M30.1543 37.1743L28.0543 35.0743L33.2571 29.8714C33.8314 29.2971 34.7743 29.2971 35.3571 29.8714C35.64 30.1543 35.7943 30.5229 35.7943 30.9171C35.7943 31.3114 35.64 31.6886 35.3571 31.9629L30.1543 37.1657V37.1743Z" fill="#2966FF"/>
<path d="M25.0543 32.0743L22.9543 29.9743L28.1571 24.7714C28.7143 24.2143 29.6914 24.2143 30.2571 24.7714C30.8314 25.3457 30.8314 26.2886 30.2571 26.8714L25.0543 32.0743Z" fill="#2966FF"/>
<path d="M30.9 41.3829C30.3857 41.3829 29.9057 41.1857 29.5457 40.8171L19.3114 30.5829C18.9514 30.2229 18.7457 29.7429 18.7457 29.2286C18.7457 28.7143 18.9429 28.2343 19.3114 27.8743C19.6714 27.5143 20.1514 27.3086 20.6657 27.3086C21.18 27.3086 21.66 27.5057 22.02 27.8743L32.2543 38.1086C33 38.8543 33 40.0714 32.2543 40.8171C31.8943 41.1771 31.4143 41.3829 30.9 41.3829ZM20.6657 28.14C20.3743 28.14 20.1 28.2514 19.8943 28.4572C19.6886 28.6629 19.5771 28.9371 19.5771 29.2286C19.5771 29.52 19.6886 29.7943 19.8943 30L30.1286 40.2343C30.54 40.6457 31.2514 40.6457 31.6629 40.2343C32.0829 39.8143 32.0829 39.12 31.6629 38.7L21.4286 28.4657C21.2229 28.26 20.9486 28.1486 20.6571 28.1486L20.6657 28.14Z" fill="#222222"/>
<path d="M22.38 45.1029C20.4257 45.1029 18.5914 44.34 17.2114 42.96C14.3571 40.1057 14.3571 35.4686 17.2114 32.6143L19.8171 29.9143L30.1629 40.26L27.5657 42.96C26.1771 44.3486 24.3429 45.1114 22.3886 45.1114L22.38 45.1029ZM19.8257 31.0971L17.8029 33.1971C15.2657 35.7343 15.2657 39.8486 17.8029 42.3771C19.0286 43.6029 20.6571 44.28 22.3886 44.28C24.12 44.28 25.7486 43.6029 26.9743 42.3771L29.0057 40.2686L19.8343 31.0971H19.8257Z" fill="#222222"/>
<path d="M16.8257 47.0057C16.7229 47.0057 16.6114 46.9629 16.5343 46.8857L13.2514 43.6029C13.1743 43.5257 13.1314 43.4229 13.1314 43.3114C13.1314 43.2 13.1743 43.0971 13.2514 43.02L15.84 40.4314C15.9343 40.3371 16.0714 40.2943 16.2086 40.32C16.3457 40.3457 16.4571 40.4314 16.5086 40.5514C16.8257 41.2371 17.2629 41.8543 17.7943 42.3857C18.3171 42.9086 18.9171 43.3286 19.5771 43.6457C19.6971 43.7057 19.7829 43.8171 19.8086 43.9457C19.8343 44.0743 19.7914 44.2114 19.6971 44.3057L17.1257 46.8771C17.0486 46.9543 16.9371 46.9971 16.8343 46.9971L16.8257 47.0057ZM14.1257 43.3114L16.8257 46.0114L18.7114 44.1257C18.1629 43.8086 17.6657 43.4229 17.2114 42.9686C16.7486 42.5057 16.3457 41.9829 16.0286 41.4171L14.1343 43.3114H14.1257Z" fill="#222222"/>
<path d="M12.4714 49.3286C12.3686 49.3286 12.2571 49.2857 12.18 49.2086C12.0171 49.0457 12.0171 48.78 12.18 48.6257L15.2229 45.5829L14.5543 44.9143L11.5114 47.9572C11.3486 48.12 11.0829 48.12 10.9286 47.9572C10.7743 47.7943 10.7657 47.5286 10.9286 47.3743L14.2629 44.04C14.34 43.9629 14.4429 43.92 14.5543 43.92C14.6657 43.92 14.7686 43.9629 14.8457 44.04L16.0971 45.2914C16.26 45.4543 16.26 45.72 16.0971 45.8743L12.7629 49.2086C12.6857 49.2857 12.5743 49.3286 12.4714 49.3286Z" fill="#222222"/>
<path d="M40.4057 31.8857C39.9171 31.8857 39.42 31.6972 39.0514 31.3286L28.8172 21.0943C28.4572 20.7343 28.2514 20.2543 28.2514 19.74C28.2514 19.2257 28.4486 18.7457 28.8172 18.3857C29.1772 18.0257 29.6572 17.82 30.1714 17.82C30.6857 17.82 31.1657 18.0172 31.5257 18.3857L41.76 28.62C42.5057 29.3657 42.5057 30.5829 41.76 31.3286C41.3829 31.7057 40.8943 31.8857 40.4057 31.8857ZM30.1714 18.6429C29.88 18.6429 29.6057 18.7543 29.4 18.96C29.1943 19.1657 29.0829 19.44 29.0829 19.7314C29.0829 20.0229 29.1943 20.2972 29.4 20.5029L39.6343 30.7372C40.0543 31.1572 40.7486 31.1572 41.1686 30.7372C41.5886 30.3172 41.5886 29.6229 41.1686 29.2029L30.9343 18.9686C30.7286 18.7629 30.4543 18.6514 30.1629 18.6514L30.1714 18.6429Z" fill="#222222"/>
<path d="M41.2543 29.28L30.9086 18.9343L33.5057 16.2343C34.8943 14.8457 36.7286 14.0829 38.6829 14.0829C40.6371 14.0829 42.4714 14.8457 43.8514 16.2257C46.7057 19.08 46.7057 23.7172 43.8514 26.5714L41.2457 29.2714L41.2543 29.28ZM32.0743 18.9257L41.2457 28.0972L43.2686 25.9972C45.8057 23.46 45.8057 19.3457 43.2686 16.8172C42.0429 15.5914 40.4143 14.9143 38.6829 14.9143C36.9514 14.9143 35.3229 15.5914 34.0971 16.8172L32.0657 18.9257H32.0743Z" fill="#222222"/>
<path d="M44.94 18.8914C44.94 18.8914 44.8886 18.8914 44.8714 18.8914C44.7343 18.8657 44.6229 18.78 44.5714 18.66C44.2543 17.9829 43.8171 17.3572 43.2857 16.8257C42.7629 16.3029 42.1629 15.8829 41.5029 15.5657C41.3829 15.5057 41.2971 15.3943 41.2714 15.2657C41.2457 15.1372 41.2886 15 41.3829 14.9057L43.9543 12.3343C44.1086 12.18 44.3829 12.18 44.5371 12.3343L47.82 15.6172C47.9829 15.78 47.9829 16.0457 47.82 16.2L45.2314 18.7886C45.1543 18.8657 45.0429 18.9086 44.94 18.9086V18.8914ZM42.36 15.0772C42.9086 15.3943 43.4057 15.78 43.86 16.2343C44.3229 16.6972 44.7257 17.22 45.0429 17.7857L46.9371 15.8914L44.2371 13.1914L42.3514 15.0772H42.36Z" fill="#222222"/>
<path d="M46.5086 15.2914C46.4057 15.2914 46.2943 15.2486 46.2171 15.1714L44.9657 13.92C44.8886 13.8429 44.8457 13.74 44.8457 13.6286C44.8457 13.5172 44.8886 13.4143 44.9657 13.3372L48.3 10.0029C48.4629 9.84001 48.7286 9.84001 48.8829 10.0029C49.0371 10.1657 49.0457 10.4314 48.8829 10.5857L45.84 13.6286L46.5086 14.2972L49.5514 11.2543C49.7143 11.0914 49.98 11.0914 50.1343 11.2543C50.2886 11.4172 50.2971 11.6829 50.1343 11.8372L46.8 15.1714C46.7229 15.2486 46.6114 15.2914 46.5086 15.2914Z" fill="#222222"/>
<path d="M29.9743 12.84C29.7771 12.84 29.6143 12.6771 29.6143 12.48V9.78857C29.6143 9.59143 29.7771 9.42857 29.9743 9.42857C30.1714 9.42857 30.3343 9.59143 30.3343 9.78857V12.4714C30.3343 12.6686 30.1714 12.8314 29.9743 12.8314V12.84Z" fill="#222222"/>
<path d="M29.9743 50.5286C29.7771 50.5286 29.6143 50.3657 29.6143 50.1686V47.4857C29.6143 47.2886 29.7771 47.1257 29.9743 47.1257C30.1714 47.1257 30.3343 47.2886 30.3343 47.4857V50.1686C30.3343 50.3657 30.1714 50.5286 29.9743 50.5286Z" fill="#222222"/>
<path d="M50.16 30.3429H47.4772C47.28 30.3429 47.1172 30.18 47.1172 29.9829C47.1172 29.7857 47.28 29.6229 47.4772 29.6229H50.16C50.3572 29.6229 50.52 29.7857 50.52 29.9829C50.52 30.18 50.3572 30.3429 50.16 30.3429Z" fill="#222222"/>
<path d="M12.4714 30.3429H9.78857C9.59143 30.3429 9.42857 30.18 9.42857 29.9829C9.42857 29.7857 9.59143 29.6229 9.78857 29.6229H12.4714C12.6686 29.6229 12.8314 29.7857 12.8314 29.9829C12.8314 30.18 12.6686 30.3429 12.4714 30.3429Z" fill="#222222"/>
<path d="M44.2457 44.6143C44.1514 44.6143 44.0571 44.58 43.9886 44.5114L42.0943 42.6171C41.9486 42.4714 41.9486 42.2486 42.0943 42.1029C42.24 41.9571 42.4629 41.9571 42.6086 42.1029L44.5029 43.9971C44.6486 44.1429 44.6486 44.3657 44.5029 44.5114C44.4343 44.58 44.34 44.6143 44.2457 44.6143Z" fill="#222222"/>
<path d="M17.5971 17.9657C17.5029 17.9657 17.4086 17.9314 17.34 17.8629L15.4457 15.9686C15.3 15.8229 15.3 15.6 15.4457 15.4543C15.5914 15.3086 15.8143 15.3086 15.96 15.4543L17.8543 17.3486C18 17.4943 18 17.7171 17.8543 17.8629C17.7857 17.9314 17.6914 17.9657 17.5971 17.9657Z" fill="#222222"/>
</g>
<defs>
<clipPath id="clip0_1_158">
<rect width="41.1" height="41.1" fill="white" transform="translate(9.42857 9.42857)"/>
</clipPath>
</defs>
</svg>
