<svg width="20" height="20" viewBox="0 0 20 20" fill="none" xmlns="http://www.w3.org/2000/svg">
<path d="M14.0434 19.9997H5.95656C2.66666 19.9997 0 17.3508 0 14.0832V8.33446C0 7.66775 0.54419 7.1272 1.21538 7.1272C1.88657 7.1272 2.43076 7.66775 2.43076 8.33446V14.0832C2.43076 16.0174 4.00935 17.5854 5.95656 17.5854H14.0434C15.9906 17.5854 17.5692 16.0174 17.5692 14.0832V8.33446C17.5692 7.66775 18.1134 7.1272 18.7846 7.1272C19.4558 7.1272 20 7.66775 20 8.33446V14.0832C20 17.3508 17.3333 19.9997 14.0434 19.9997Z" fill="#2966FF"/>
<path d="M10.2102 0L4.6665 4.98991H7.96126V11.3337C7.96126 12.5757 8.96826 13.5827 10.2102 13.5827C11.4522 13.5827 12.4592 12.5757 12.4592 11.3337V4.98991H15.7539L10.2102 0Z" fill="#2966FF"/>
</svg>
