<svg width="21" height="26" viewBox="0 0 21 26" fill="none" xmlns="http://www.w3.org/2000/svg">
<path d="M20.5303 20.5303C20.8232 20.2374 20.8232 19.7626 20.5303 19.4697L15.7574 14.6967C15.4645 14.4038 14.9896 14.4038 14.6967 14.6967C14.4038 14.9896 14.4038 15.4645 14.6967 15.7574L18.9393 20L14.6967 24.2426C14.4038 24.5355 14.4038 25.0104 14.6967 25.3033C14.9896 25.5962 15.4645 25.5962 15.7574 25.3033L20.5303 20.5303ZM1.75 1C1.75 0.585786 1.41421 0.25 1 0.25C0.585786 0.25 0.25 0.585786 0.25 1H1.75ZM20 19.25H6V20.75H20V19.25ZM1.75 15V1H0.25V15H1.75ZM6 19.25C3.65279 19.25 1.75 17.3472 1.75 15H0.25C0.25 18.1756 2.82436 20.75 6 20.75V19.25Z" fill="#777777"/>
</svg>
